<?xml version="1.0" encoding="UTF-8" standalone="no"?>
<!DOCTYPE svg PUBLIC "-//W3C//DTD SVG 1.1//EN"
 "http://www.w3.org/Graphics/SVG/1.1/DTD/svg11.dtd">
<!-- Generated by graphviz version 15.0.0 (20260523.1842)
 -->
<!-- Title: ERD Pages: 1 -->
<svg width="959pt" height="896pt"
 viewBox="0.00 0.00 959.00 896.00" xmlns="http://www.w3.org/2000/svg" xmlns:xlink="http://www.w3.org/1999/xlink">
<g id="graph0" class="graph" transform="scale(1 1) rotate(0) translate(36 860.4)">
<title>ERD</title>
<polygon fill="white" stroke="none" points="-36,36 -36,-860.4 922.75,-860.4 922.75,36 -36,36"/>
<!-- customer -->
<g id="node1" class="node">
<title>customer</title>
<polygon fill="#e4f0da" stroke="none" points="478.5,-4 478.5,-388.4 627.01,-388.4 627.01,-4 478.5,-4"/>
<polygon fill="#82b366" stroke="none" points="478.5,-357.6 478.5,-388.4 627.01,-388.4 627.01,-357.6 478.5,-357.6"/>
<polygon fill="none" stroke="black" points="478.5,-357.6 478.5,-388.4 627.01,-388.4 627.01,-357.6 478.5,-357.6"/>
<text xml:space="preserve" text-anchor="start" x="521.25" y="-369.8" font-family="Arial" font-weight="bold" font-size="14.00" fill="white">customer</text>
<polygon fill="#d3e8c6" stroke="none" points="478.5,-330.4 478.5,-357.6 627.01,-357.6 627.01,-330.4 478.5,-330.4"/>
<polygon fill="none" stroke="black" points="478.5,-330.4 478.5,-357.6 627.01,-357.6 627.01,-330.4 478.5,-330.4"/>
<text xml:space="preserve" text-anchor="start" x="485.5" y="-341.7" font-family="Arial" font-size="11.00">🔑 </text>
<text xml:space="preserve" text-anchor="start" x="500.78" y="-341.7" font-family="Arial" font-weight="bold" font-size="11.00">customer_id : int</text>
<polygon fill="none" stroke="black" points="478.5,-303.2 478.5,-330.4 627.01,-330.4 627.01,-303.2 478.5,-303.2"/>
<text xml:space="preserve" text-anchor="start" x="485.5" y="-312.4" font-family="Arial" font-size="11.00">name : varchar(100)</text>
<polygon fill="none" stroke="black" points="478.5,-276 478.5,-303.2 627.01,-303.2 627.01,-276 478.5,-276"/>
<text xml:space="preserve" text-anchor="start" x="485.5" y="-285.2" font-family="Arial" font-size="11.00">address : varchar(255)</text>
<polygon fill="none" stroke="black" points="478.5,-248.8 478.5,-276 627.01,-276 627.01,-248.8 478.5,-248.8"/>
<text xml:space="preserve" text-anchor="start" x="485.5" y="-258" font-family="Arial" font-size="11.00">city : varchar(50)</text>
<polygon fill="none" stroke="black" points="478.5,-221.6 478.5,-248.8 627.01,-248.8 627.01,-221.6 478.5,-221.6"/>
<text xml:space="preserve" text-anchor="start" x="485.5" y="-230.8" font-family="Arial" font-size="11.00">state : varchar(2)</text>
<polygon fill="none" stroke="black" points="478.5,-194.4 478.5,-221.6 627.01,-221.6 627.01,-194.4 478.5,-194.4"/>
<text xml:space="preserve" text-anchor="start" x="485.5" y="-203.6" font-family="Arial" font-size="11.00">zip_code : varchar(5)</text>
<polygon fill="none" stroke="black" points="478.5,-167.2 478.5,-194.4 627.01,-194.4 627.01,-167.2 478.5,-167.2"/>
<text xml:space="preserve" text-anchor="start" x="485.5" y="-176.4" font-family="Arial" font-size="11.00">phone : varchar(25)</text>
<polygon fill="none" stroke="black" points="478.5,-140 478.5,-167.2 627.01,-167.2 627.01,-140 478.5,-140"/>
<text xml:space="preserve" text-anchor="start" x="485.5" y="-149.2" font-family="Arial" font-size="11.00">email : varchar(100)</text>
<polygon fill="none" stroke="black" points="478.5,-112.8 478.5,-140 627.01,-140 627.01,-112.8 478.5,-112.8"/>
<text xml:space="preserve" text-anchor="start" x="485.5" y="-122" font-family="Arial" font-size="11.00">wishlist : varchar(255)</text>
<polygon fill="none" stroke="black" points="478.5,-85.6 478.5,-112.8 627.01,-112.8 627.01,-85.6 478.5,-85.6"/>
<text xml:space="preserve" text-anchor="start" x="485.5" y="-94.8" font-family="Arial" font-size="11.00">credit_card_id : varchar(30)</text>
<polygon fill="none" stroke="black" points="478.5,-58.4 478.5,-85.6 627.01,-85.6 627.01,-58.4 478.5,-58.4"/>
<text xml:space="preserve" text-anchor="start" x="485.5" y="-67.6" font-family="Arial" font-size="11.00">expiration_date : varchar(5)</text>
<polygon fill="none" stroke="black" points="478.5,-31.2 478.5,-58.4 627.01,-58.4 627.01,-31.2 478.5,-31.2"/>
<text xml:space="preserve" text-anchor="start" x="485.5" y="-40.4" font-family="Arial" font-size="11.00">holder_name : varchar(50)</text>
<polygon fill="none" stroke="black" points="478.5,-4 478.5,-31.2 627.01,-31.2 627.01,-4 478.5,-4"/>
<text xml:space="preserve" text-anchor="start" x="485.5" y="-13.2" font-family="Arial" font-size="11.00">description : varchar(2000)</text>
</g>
<!-- product_category -->
<g id="node2" class="node">
<title>product_category</title>
<polygon fill="#ede3f4" stroke="none" points="717.46,-409 717.46,-521.4 878.75,-521.4 878.75,-409 717.46,-409"/>
<polygon fill="#9673a6" stroke="none" points="717.46,-490.6 717.46,-521.4 878.75,-521.4 878.75,-490.6 717.46,-490.6"/>
<polygon fill="none" stroke="black" points="717.46,-490.6 717.46,-521.4 878.75,-521.4 878.75,-490.6 717.46,-490.6"/>
<text xml:space="preserve" text-anchor="start" x="738.98" y="-502.8" font-family="Arial" font-weight="bold" font-size="14.00" fill="white">product_category</text>
<polygon fill="#e0d0ec" stroke="none" points="717.46,-463.4 717.46,-490.6 878.75,-490.6 878.75,-463.4 717.46,-463.4"/>
<polygon fill="none" stroke="black" points="717.46,-463.4 717.46,-490.6 878.75,-490.6 878.75,-463.4 717.46,-463.4"/>
<text xml:space="preserve" text-anchor="start" x="724.46" y="-474.7" font-family="Arial" font-size="11.00">🔑 </text>
<text xml:space="preserve" text-anchor="start" x="739.74" y="-474.7" font-family="Arial" font-weight="bold" font-size="11.00">product_category_id : int</text>
<polygon fill="none" stroke="black" points="717.46,-436.2 717.46,-463.4 878.75,-463.4 878.75,-436.2 717.46,-436.2"/>
<text xml:space="preserve" text-anchor="start" x="724.46" y="-445.4" font-family="Arial" font-size="11.00">name : varchar(50)</text>
<polygon fill="none" stroke="black" points="717.46,-409 717.46,-436.2 878.75,-436.2 878.75,-409 717.46,-409"/>
<text xml:space="preserve" text-anchor="start" x="724.46" y="-420.3" font-family="Arial" font-size="11.00">↗ </text>
<text xml:space="preserve" text-anchor="start" x="736.68" y="-420.3" font-family="Arial" font-style="italic" font-size="11.00">parent_category_id : int</text>
</g>
<!-- product_category&#45;&gt;product_category -->
<g id="edge2" class="edge">
<title>product_category:parent_category_id&#45;&gt;product_category:product_category_id</title>
<path fill="none" stroke="#5b6470" stroke-width="1.2" d="M707.4,-410.12C646.36,-408.37 586.78,-419.1 586.78,-449.8 586.78,-481.38 649.85,-491.83 712.69,-489.3"/>
<polygon fill="#5b6470" stroke="#5b6470" stroke-width="1.2" points="707.21,-410.11 717.02,-415.01 712.61,-410.33 716.8,-410.49 716.8,-410.49 716.8,-410.49 712.61,-410.33 717.38,-406.01 707.21,-410.11"/>
<polygon fill="#5b6470" stroke="#5b6470" stroke-width="1.2" points="716.38,-484.13 716.83,-494.12 714.83,-494.21 714.38,-484.22 716.38,-484.13"/>
<polyline fill="none" stroke="#5b6470" stroke-width="1.2" points="717.6,-489.07 712.61,-489.3"/>
</g>
<!-- product -->
<g id="node3" class="node">
<title>product</title>
<polygon fill="#ede3f4" stroke="none" points="476.06,-436 476.06,-820.4 629.46,-820.4 629.46,-436 476.06,-436"/>
<polygon fill="#9673a6" stroke="none" points="476.06,-789.6 476.06,-820.4 629.46,-820.4 629.46,-789.6 476.06,-789.6"/>
<polygon fill="none" stroke="black" points="476.06,-789.6 476.06,-820.4 629.46,-820.4 629.46,-789.6 476.06,-789.6"/>
<text xml:space="preserve" text-anchor="start" x="526.71" y="-801.8" font-family="Arial" font-weight="bold" font-size="14.00" fill="white">product</text>
<polygon fill="#e0d0ec" stroke="none" points="476.06,-762.4 476.06,-789.6 629.46,-789.6 629.46,-762.4 476.06,-762.4"/>
<polygon fill="none" stroke="black" points="476.06,-762.4 476.06,-789.6 629.46,-789.6 629.46,-762.4 476.06,-762.4"/>
<text xml:space="preserve" text-anchor="start" x="483.06" y="-773.7" font-family="Arial" font-size="11.00">🔑 </text>
<text xml:space="preserve" text-anchor="start" x="498.34" y="-773.7" font-family="Arial" font-weight="bold" font-size="11.00">product_id : int</text>
<polygon fill="none" stroke="black" points="476.06,-735.2 476.06,-762.4 629.46,-762.4 629.46,-735.2 476.06,-735.2"/>
<text xml:space="preserve" text-anchor="start" x="483.06" y="-744.4" font-family="Arial" font-size="11.00">product_number : varchar(7)</text>
<polygon fill="none" stroke="black" points="476.06,-708 476.06,-735.2 629.46,-735.2 629.46,-708 476.06,-708"/>
<text xml:space="preserve" text-anchor="start" x="483.06" y="-717.2" font-family="Arial" font-size="11.00">name : varchar(255)</text>
<polygon fill="none" stroke="black" points="476.06,-680.8 476.06,-708 629.46,-708 629.46,-680.8 476.06,-680.8"/>
<text xml:space="preserve" text-anchor="start" x="483.06" y="-690" font-family="Arial" font-size="11.00">vendor_name : varchar(255)</text>
<polygon fill="none" stroke="black" points="476.06,-653.6 476.06,-680.8 629.46,-680.8 629.46,-653.6 476.06,-653.6"/>
<text xml:space="preserve" text-anchor="start" x="483.06" y="-662.8" font-family="Arial" font-size="11.00">compatible_os : varchar(50)</text>
<polygon fill="none" stroke="black" points="476.06,-626.4 476.06,-653.6 629.46,-653.6 629.46,-626.4 476.06,-626.4"/>
<text xml:space="preserve" text-anchor="start" x="483.06" y="-635.6" font-family="Arial" font-size="11.00">required_disk_space : float</text>
<polygon fill="none" stroke="black" points="476.06,-599.2 476.06,-626.4 629.46,-626.4 629.46,-599.2 476.06,-599.2"/>
<text xml:space="preserve" text-anchor="start" x="483.06" y="-608.4" font-family="Arial" font-size="11.00">required_ram : float</text>
<polygon fill="none" stroke="black" points="476.06,-572 476.06,-599.2 629.46,-599.2 629.46,-572 476.06,-572"/>
<text xml:space="preserve" text-anchor="start" x="483.06" y="-581.2" font-family="Arial" font-size="11.00">weight : float</text>
<polygon fill="none" stroke="black" points="476.06,-544.8 476.06,-572 629.46,-572 629.46,-544.8 476.06,-544.8"/>
<text xml:space="preserve" text-anchor="start" x="483.06" y="-554" font-family="Arial" font-size="11.00">height : float</text>
<polygon fill="none" stroke="black" points="476.06,-517.6 476.06,-544.8 629.46,-544.8 629.46,-517.6 476.06,-517.6"/>
<text xml:space="preserve" text-anchor="start" x="483.06" y="-526.8" font-family="Arial" font-size="11.00">width : float</text>
<polygon fill="none" stroke="black" points="476.06,-490.4 476.06,-517.6 629.46,-517.6 629.46,-490.4 476.06,-490.4"/>
<text xml:space="preserve" text-anchor="start" x="483.06" y="-499.6" font-family="Arial" font-size="11.00">length : float</text>
<polygon fill="none" stroke="black" points="476.06,-463.2 476.06,-490.4 629.46,-490.4 629.46,-463.2 476.06,-463.2"/>
<text xml:space="preserve" text-anchor="start" x="483.06" y="-474.5" font-family="Arial" font-size="11.00">↗ </text>
<text xml:space="preserve" text-anchor="start" x="495.28" y="-474.5" font-family="Arial" font-style="italic" font-size="11.00">product_category_id : int</text>
<polygon fill="none" stroke="black" points="476.06,-436 476.06,-463.2 629.46,-463.2 629.46,-436 476.06,-436"/>
<text xml:space="preserve" text-anchor="start" x="483.06" y="-445.2" font-family="Arial" font-size="11.00">list_price : decimal(10,2)</text>
</g>
<!-- product&#45;&gt;product_category -->
<g id="edge1" class="edge">
<title>product:product_category_id&#45;&gt;product_category:product_category_id</title>
<path fill="none" stroke="#5b6470" stroke-width="1.2" d="M640.89,-476.81C669.41,-476.84 680.88,-476.99 711.75,-477"/>
<polygon fill="#5b6470" stroke="#5b6470" stroke-width="1.2" points="640.86,-476.81 630.86,-472.3 635.46,-476.8 631.26,-476.8 631.26,-476.8 631.26,-476.8 635.46,-476.8 630.85,-481.3 640.86,-476.81"/>
<polygon fill="#5b6470" stroke="#5b6470" stroke-width="1.2" points="715.46,-472 715.45,-482 713.45,-482 713.46,-472 715.46,-472"/>
<polyline fill="none" stroke="#5b6470" stroke-width="1.2" points="716.46,-477 711.46,-477"/>
</g>
<!-- order -->
<g id="node4" class="node">
<title>order</title>
<polygon fill="#fcf3d5" stroke="none" points="258.51,-222.4 258.51,-362 377.07,-362 377.07,-222.4 258.51,-222.4"/>
<polygon fill="#d6b656" stroke="none" points="258.51,-331.2 258.51,-362 377.07,-362 377.07,-331.2 258.51,-331.2"/>
<polygon fill="none" stroke="black" points="258.51,-331.2 258.51,-362 377.07,-362 377.07,-331.2 258.51,-331.2"/>
<text xml:space="preserve" text-anchor="start" x="299.89" y="-343.4" font-family="Arial" font-weight="bold" font-size="14.00" fill="white">order</text>
<polygon fill="#f4e6b4" stroke="none" points="258.51,-304 258.51,-331.2 377.07,-331.2 377.07,-304 258.51,-304"/>
<polygon fill="none" stroke="black" points="258.51,-304 258.51,-331.2 377.07,-331.2 377.07,-304 258.51,-304"/>
<text xml:space="preserve" text-anchor="start" x="265.51" y="-315.3" font-family="Arial" font-size="11.00">🔑 </text>
<text xml:space="preserve" text-anchor="start" x="280.79" y="-315.3" font-family="Arial" font-weight="bold" font-size="11.00">order_id : int</text>
<polygon fill="none" stroke="black" points="258.51,-276.8 258.51,-304 377.07,-304 377.07,-276.8 258.51,-276.8"/>
<text xml:space="preserve" text-anchor="start" x="265.51" y="-288.1" font-family="Arial" font-size="11.00">↗ </text>
<text xml:space="preserve" text-anchor="start" x="277.73" y="-288.1" font-family="Arial" font-style="italic" font-size="11.00">customer_id : int</text>
<polygon fill="none" stroke="black" points="258.51,-249.6 258.51,-276.8 377.07,-276.8 377.07,-249.6 258.51,-249.6"/>
<text xml:space="preserve" text-anchor="start" x="265.51" y="-258.8" font-family="Arial" font-size="11.00">status : varchar(50)</text>
<polygon fill="none" stroke="black" points="258.51,-222.4 258.51,-249.6 377.07,-249.6 377.07,-222.4 258.51,-222.4"/>
<text xml:space="preserve" text-anchor="start" x="265.51" y="-231.6" font-family="Arial" font-size="11.00">order_date : datetime</text>
</g>
<!-- order&#45;&gt;customer -->
<g id="edge3" class="edge">
<title>order:customer_id&#45;&gt;customer:customer_id</title>
<path fill="none" stroke="#5b6470" stroke-width="1.2" d="M388.44,-291.24C427.01,-297.82 430.79,-340.82 472.76,-343.83"/>
<polygon fill="#5b6470" stroke="#5b6470" stroke-width="1.2" points="388.44,-291.24 378.83,-285.95 383.05,-290.8 378.87,-290.46 378.87,-290.46 378.87,-290.46 383.05,-290.8 378.11,-294.92 388.44,-291.24"/>
<polygon fill="#5b6470" stroke="#5b6470" stroke-width="1.2" points="476.68,-338.97 476.33,-348.96 474.33,-348.89 474.68,-338.9 476.68,-338.97"/>
<polyline fill="none" stroke="#5b6470" stroke-width="1.2" points="477.5,-344 472.5,-343.82"/>
</g>
<!-- order_item -->
<g id="node5" class="node">
<title>order_item</title>
<polygon fill="#fcf3d5" stroke="none" points="34.57,-612.4 34.57,-752 132.95,-752 132.95,-612.4 34.57,-612.4"/>
<polygon fill="#d6b656" stroke="none" points="34.57,-721.2 34.57,-752 132.95,-752 132.95,-721.2 34.57,-721.2"/>
<polygon fill="none" stroke="black" points="34.57,-721.2 34.57,-752 132.95,-752 132.95,-721.2 34.57,-721.2"/>
<text xml:space="preserve" text-anchor="start" x="47.58" y="-733.4" font-family="Arial" font-weight="bold" font-size="14.00" fill="white">order_item</text>
<polygon fill="#f4e6b4" stroke="none" points="34.57,-694 34.57,-721.2 132.95,-721.2 132.95,-694 34.57,-694"/>
<polygon fill="none" stroke="black" points="34.57,-694 34.57,-721.2 132.95,-721.2 132.95,-694 34.57,-694"/>
<text xml:space="preserve" text-anchor="start" x="41.57" y="-705.3" font-family="Arial" font-size="11.00">🔑 </text>
<text xml:space="preserve" text-anchor="start" x="56.85" y="-705.3" font-family="Arial" font-weight="bold" font-style="italic" font-size="11.00">order_id : int</text>
<polygon fill="#f4e6b4" stroke="none" points="34.57,-666.8 34.57,-694 132.95,-694 132.95,-666.8 34.57,-666.8"/>
<polygon fill="none" stroke="black" points="34.57,-666.8 34.57,-694 132.95,-694 132.95,-666.8 34.57,-666.8"/>
<text xml:space="preserve" text-anchor="start" x="41.57" y="-678.1" font-family="Arial" font-size="11.00">🔑 </text>
<text xml:space="preserve" text-anchor="start" x="56.85" y="-678.1" font-family="Arial" font-weight="bold" font-size="11.00">item_id : int</text>
<polygon fill="none" stroke="black" points="34.57,-639.6 34.57,-666.8 132.95,-666.8 132.95,-639.6 34.57,-639.6"/>
<text xml:space="preserve" text-anchor="start" x="41.57" y="-650.9" font-family="Arial" font-size="11.00">↗ </text>
<text xml:space="preserve" text-anchor="start" x="53.79" y="-650.9" font-family="Arial" font-style="italic" font-size="11.00">product_id : int</text>
<polygon fill="none" stroke="black" points="34.57,-612.4 34.57,-639.6 132.95,-639.6 132.95,-612.4 34.57,-612.4"/>
<text xml:space="preserve" text-anchor="start" x="41.57" y="-621.6" font-family="Arial" font-size="11.00">quantity : int</text>
</g>
<!-- order_item&#45;&gt;product -->
<g id="edge5" class="edge">
<title>order_item:product_id&#45;&gt;product:product_id</title>
<path fill="none" stroke="#5b6470" stroke-width="1.2" d="M144.31,-653.91C206.56,-662.96 174.39,-756.46 239.52,-788.2 302.06,-818.69 326.69,-793.52 396.06,-788.2 429.82,-785.61 438.72,-776.87 470.24,-776.06"/>
<polygon fill="#5b6470" stroke="#5b6470" stroke-width="1.2" points="144.33,-653.91 134.65,-648.74 138.94,-653.54 134.75,-653.25 134.75,-653.25 134.75,-653.25 138.94,-653.54 134.04,-657.72 144.33,-653.91"/>
<polygon fill="#5b6470" stroke="#5b6470" stroke-width="1.2" points="474,-771.01 474.12,-781.01 472.12,-781.04 472,-771.04 474,-771.01"/>
<polyline fill="none" stroke="#5b6470" stroke-width="1.2" points="475.06,-776 470.06,-776.06"/>
</g>
<!-- order_item&#45;&gt;order -->
<g id="edge4" class="edge">
<title>order_item:order_id&#45;&gt;order:order_id</title>
<path fill="none" stroke="#5b6470" stroke-width="1.2" d="M144.13,-707.16C305.05,-692.65 83.42,-324.53 252.65,-317.7"/>
<polygon fill="#5b6470" stroke="#5b6470" stroke-width="1.2" points="144.34,-707.15 134.15,-703.09 138.94,-707.38 134.75,-707.57 134.75,-707.57 134.75,-707.57 138.94,-707.38 134.54,-712.08 144.34,-707.15"/>
<polygon fill="#5b6470" stroke="#5b6470" stroke-width="1.2" points="256.41,-312.62 256.6,-322.62 254.61,-322.66 254.41,-312.66 256.41,-312.62"/>
<polyline fill="none" stroke="#5b6470" stroke-width="1.2" points="257.51,-317.6 252.51,-317.7"/>
</g>
<!-- order_shipment -->
<g id="node6" class="node">
<title>order_shipment</title>
<polygon fill="#fcf3d5" stroke="none" points="8,-249.4 8,-389 159.52,-389 159.52,-249.4 8,-249.4"/>
<polygon fill="#d6b656" stroke="none" points="8,-358.2 8,-389 159.52,-389 159.52,-358.2 8,-358.2"/>
<polygon fill="none" stroke="black" points="8,-358.2 8,-389 159.52,-389 159.52,-358.2 8,-358.2"/>
<text xml:space="preserve" text-anchor="start" x="30.86" y="-370.4" font-family="Arial" font-weight="bold" font-size="14.00" fill="white">order_shipment</text>
<polygon fill="#f4e6b4" stroke="none" points="8,-331 8,-358.2 159.52,-358.2 159.52,-331 8,-331"/>
<polygon fill="none" stroke="black" points="8,-331 8,-358.2 159.52,-358.2 159.52,-331 8,-331"/>
<text xml:space="preserve" text-anchor="start" x="15" y="-342.3" font-family="Arial" font-size="11.00">🔑 </text>
<text xml:space="preserve" text-anchor="start" x="30.28" y="-342.3" font-family="Arial" font-weight="bold" font-size="11.00">order_shipment_id : int</text>
<polygon fill="none" stroke="black" points="8,-303.8 8,-331 159.52,-331 159.52,-303.8 8,-303.8"/>
<text xml:space="preserve" text-anchor="start" x="15" y="-315.1" font-family="Arial" font-size="11.00">↗ </text>
<text xml:space="preserve" text-anchor="start" x="27.22" y="-315.1" font-family="Arial" font-style="italic" font-size="11.00">order_id : int</text>
<polygon fill="none" stroke="black" points="8,-276.6 8,-303.8 159.52,-303.8 159.52,-276.6 8,-276.6"/>
<text xml:space="preserve" text-anchor="start" x="15" y="-285.8" font-family="Arial" font-size="11.00">created_at : datetime</text>
<polygon fill="none" stroke="black" points="8,-249.4 8,-276.6 159.52,-276.6 159.52,-249.4 8,-249.4"/>
<text xml:space="preserve" text-anchor="start" x="15" y="-258.6" font-family="Arial" font-size="11.00">price : decimal(10,2)</text>
</g>
<!-- order_shipment&#45;&gt;order -->
<g id="edge6" class="edge">
<title>order_shipment:order_id&#45;&gt;order:order_id</title>
<path fill="none" stroke="#5b6470" stroke-width="1.2" d="M170.95,-317.4C204.22,-317.43 217,-317.59 252.57,-317.6"/>
<polygon fill="#5b6470" stroke="#5b6470" stroke-width="1.2" points="170.92,-317.4 160.92,-312.9 165.52,-317.4 161.32,-317.4 161.32,-317.4 161.32,-317.4 165.52,-317.4 160.92,-321.9 170.92,-317.4"/>
<polygon fill="#5b6470" stroke="#5b6470" stroke-width="1.2" points="256.51,-312.6 256.5,-322.6 254.5,-322.6 254.51,-312.6 256.51,-312.6"/>
<polyline fill="none" stroke="#5b6470" stroke-width="1.2" points="257.51,-317.6 252.51,-317.6"/>
</g>
<!-- review -->
<g id="node7" class="node">
<title>review</title>
<polygon fill="#ede3f4" stroke="none" points="253.92,-597.8 253.92,-764.6 381.65,-764.6 381.65,-597.8 253.92,-597.8"/>
<polygon fill="#9673a6" stroke="none" points="253.92,-733.8 253.92,-764.6 381.65,-764.6 381.65,-733.8 253.92,-733.8"/>
<polygon fill="none" stroke="black" points="253.92,-733.8 253.92,-764.6 381.65,-764.6 381.65,-733.8 253.92,-733.8"/>
<text xml:space="preserve" text-anchor="start" x="295.99" y="-746" font-family="Arial" font-weight="bold" font-size="14.00" fill="white">review</text>
<polygon fill="#e0d0ec" stroke="none" points="253.92,-706.6 253.92,-733.8 381.65,-733.8 381.65,-706.6 253.92,-706.6"/>
<polygon fill="none" stroke="black" points="253.92,-706.6 253.92,-733.8 381.65,-733.8 381.65,-706.6 253.92,-706.6"/>
<text xml:space="preserve" text-anchor="start" x="260.92" y="-717.9" font-family="Arial" font-size="11.00">🔑 </text>
<text xml:space="preserve" text-anchor="start" x="276.2" y="-717.9" font-family="Arial" font-weight="bold" font-style="italic" font-size="11.00">product_id : int</text>
<polygon fill="#e0d0ec" stroke="none" points="253.92,-679.4 253.92,-706.6 381.65,-706.6 381.65,-679.4 253.92,-679.4"/>
<polygon fill="none" stroke="black" points="253.92,-679.4 253.92,-706.6 381.65,-706.6 381.65,-679.4 253.92,-679.4"/>
<text xml:space="preserve" text-anchor="start" x="260.92" y="-690.7" font-family="Arial" font-size="11.00">🔑 </text>
<text xml:space="preserve" text-anchor="start" x="276.2" y="-690.7" font-family="Arial" font-weight="bold" font-style="italic" font-size="11.00">author_id : int</text>
<polygon fill="none" stroke="black" points="253.92,-652.2 253.92,-679.4 381.65,-679.4 381.65,-652.2 253.92,-652.2"/>
<text xml:space="preserve" text-anchor="start" x="260.92" y="-661.4" font-family="Arial" font-size="11.00">content : varchar(4000)</text>
<polygon fill="none" stroke="black" points="253.92,-625 253.92,-652.2 381.65,-652.2 381.65,-625 253.92,-625"/>
<text xml:space="preserve" text-anchor="start" x="260.92" y="-634.2" font-family="Arial" font-size="11.00">rating : int</text>
<polygon fill="none" stroke="black" points="253.92,-597.8 253.92,-625 381.65,-625 381.65,-597.8 253.92,-597.8"/>
<text xml:space="preserve" text-anchor="start" x="260.92" y="-607" font-family="Arial" font-size="11.00">review_date : datetime</text>
</g>
<!-- review&#45;&gt;customer -->
<g id="edge8" class="edge">
<title>review:author_id&#45;&gt;customer:customer_id</title>
<path fill="none" stroke="#5b6470" stroke-width="1.2" d="M392.9,-692.48C531.89,-677.66 324.91,-351.13 472.56,-344.11"/>
<polygon fill="#5b6470" stroke="#5b6470" stroke-width="1.2" points="393.04,-692.47 382.82,-688.49 387.64,-692.75 383.45,-692.96 383.45,-692.96 383.45,-692.96 387.64,-692.75 383.28,-697.47 393.04,-692.47"/>
<polygon fill="#5b6470" stroke="#5b6470" stroke-width="1.2" points="476.38,-339.02 476.62,-349.02 474.62,-349.07 474.38,-339.07 476.38,-339.02"/>
<polyline fill="none" stroke="#5b6470" stroke-width="1.2" points="477.5,-344 472.5,-344.12"/>
</g>
<!-- review&#45;&gt;product -->
<g id="edge7" class="edge">
<title>review:product_id&#45;&gt;product:product_id</title>
<path fill="none" stroke="#5b6470" stroke-width="1.2" d="M393,-721.17C428.93,-728.29 430.74,-772.36 470.07,-775.79"/>
<polygon fill="#5b6470" stroke="#5b6470" stroke-width="1.2" points="393.01,-721.17 383.47,-715.76 387.63,-720.67 383.45,-720.27 383.45,-720.27 383.45,-720.27 387.63,-720.67 382.63,-724.72 393.01,-721.17"/>
<polygon fill="#5b6470" stroke="#5b6470" stroke-width="1.2" points="474.27,-770.96 473.85,-780.95 471.85,-780.87 472.27,-770.88 474.27,-770.96"/>
<polyline fill="none" stroke="#5b6470" stroke-width="1.2" points="475.06,-776 470.06,-775.79"/>
</g>
<!-- review_image -->
<g id="node8" class="node">
<title>review_image</title>
<polygon fill="#ede3f4" stroke="none" points="247.52,-410.4 247.52,-550 388.06,-550 388.06,-410.4 247.52,-410.4"/>
<polygon fill="#9673a6" stroke="none" points="247.52,-519.2 247.52,-550 388.06,-550 388.06,-519.2 247.52,-519.2"/>
<polygon fill="none" stroke="black" points="247.52,-519.2 247.52,-550 388.06,-550 388.06,-519.2 247.52,-519.2"/>
<text xml:space="preserve" text-anchor="start" x="271.87" y="-531.4" font-family="Arial" font-weight="bold" font-size="14.00" fill="white">review_image</text>
<polygon fill="#e0d0ec" stroke="none" points="247.52,-492 247.52,-519.2 388.06,-519.2 388.06,-492 247.52,-492"/>
<polygon fill="none" stroke="black" points="247.52,-492 247.52,-519.2 388.06,-519.2 388.06,-492 247.52,-492"/>
<text xml:space="preserve" text-anchor="start" x="254.52" y="-503.3" font-family="Arial" font-size="11.00">🔑 </text>
<text xml:space="preserve" text-anchor="start" x="269.8" y="-503.3" font-family="Arial" font-weight="bold" font-size="11.00">review_image_id : int</text>
<polygon fill="#e0d0ec" stroke="none" points="247.52,-464.8 247.52,-492 388.06,-492 388.06,-464.8 247.52,-464.8"/>
<polygon fill="none" stroke="black" points="247.52,-464.8 247.52,-492 388.06,-492 388.06,-464.8 247.52,-464.8"/>
<text xml:space="preserve" text-anchor="start" x="254.52" y="-476.1" font-family="Arial" font-size="11.00">🔑 </text>
<text xml:space="preserve" text-anchor="start" x="269.8" y="-476.1" font-family="Arial" font-weight="bold" font-style="italic" font-size="11.00">product_id : int</text>
<polygon fill="#e0d0ec" stroke="none" points="247.52,-437.6 247.52,-464.8 388.06,-464.8 388.06,-437.6 247.52,-437.6"/>
<polygon fill="none" stroke="black" points="247.52,-437.6 247.52,-464.8 388.06,-464.8 388.06,-437.6 247.52,-437.6"/>
<text xml:space="preserve" text-anchor="start" x="254.52" y="-448.9" font-family="Arial" font-size="11.00">🔑 </text>
<text xml:space="preserve" text-anchor="start" x="269.8" y="-448.9" font-family="Arial" font-weight="bold" font-style="italic" font-size="11.00">author_id : int</text>
<polygon fill="none" stroke="black" points="247.52,-410.4 247.52,-437.6 388.06,-437.6 388.06,-410.4 247.52,-410.4"/>
<text xml:space="preserve" text-anchor="start" x="254.52" y="-419.6" font-family="Arial" font-size="11.00">image_url : varchar(500)</text>
</g>
<!-- review_image&#45;&gt;customer -->
<g id="edge10" class="edge">
<title>review_image:author_id&#45;&gt;customer:customer_id</title>
<path fill="none" stroke="#5b6470" stroke-width="1.2" d="M399.26,-450.07C445.53,-438.95 421.02,-349.47 472.62,-344.24"/>
<polygon fill="#5b6470" stroke="#5b6470" stroke-width="1.2" points="399.4,-450.05 388.96,-446.68 394.03,-450.65 389.86,-451.11 389.86,-451.11 389.86,-451.11 394.03,-450.65 389.95,-455.63 399.4,-450.05"/>
<polygon fill="#5b6470" stroke="#5b6470" stroke-width="1.2" points="476.26,-339.05 476.75,-349.04 474.75,-349.14 474.26,-339.15 476.26,-339.05"/>
<polyline fill="none" stroke="#5b6470" stroke-width="1.2" points="477.5,-344 472.51,-344.24"/>
</g>
<!-- review_image&#45;&gt;product -->
<g id="edge9" class="edge">
<title>review_image:product_id&#45;&gt;product:product_id</title>
<path fill="none" stroke="#5b6470" stroke-width="1.2" d="M399.28,-479.01C515.49,-493.7 345.43,-768.88 470.1,-775.86"/>
<polygon fill="#5b6470" stroke="#5b6470" stroke-width="1.2" points="399.44,-479.02 389.73,-473.93 394.05,-478.7 389.86,-478.45 389.86,-478.45 389.86,-478.45 394.05,-478.7 389.19,-482.92 399.44,-479.02"/>
<polygon fill="#5b6470" stroke="#5b6470" stroke-width="1.2" points="474.2,-770.97 473.92,-780.97 471.92,-780.92 472.2,-770.92 474.2,-770.97"/>
<polyline fill="none" stroke="#5b6470" stroke-width="1.2" points="475.06,-776 470.06,-775.86"/>
</g>
</g>
</svg>
